<?xml version="1.0" standalone="no"?>
<!DOCTYPE svg PUBLIC "-//W3C//DTD SVG 1.1//EN" "http://www.w3.org/Graphics/SVG/1.1/DTD/svg11.dtd">
<!--Generator: Xara Designer (www.xara.com), SVG filter version: 6.6.0.6-->
<svg fill="none" fill-rule="evenodd" stroke="black" stroke-width="0.501" stroke-linejoin="bevel" stroke-miterlimit="10" font-family="Times New Roman" font-size="16" style="font-variant-ligatures:none" xmlns:xlink="http://www.w3.org/1999/xlink" xmlns="http://www.w3.org/2000/svg" version="1.1" overflow="visible" width="375pt" height="72pt" viewBox="0 -72 375 72">
 <defs>
  <style type="text/css">@import url('https://themes.googleusercontent.com/fonts/css?family=Open Sans:400,600');</style>
 </defs>
 <g id="MouseOff" transform="scale(1 -1)">
  <path d="M 10.528,10.566 C -3.511,24.606 -3.511,47.394 10.528,61.434 C 24.568,75.473 47.356,75.473 61.396,61.434 C 75.435,47.394 75.435,24.606 61.396,10.566 C 47.356,-3.473 24.568,-3.473 10.528,10.566 Z M 45.966,25.983 L 46.003,26.02 C 48.298,28.314 48.298,32.039 46.001,34.336 C 44.902,35.434 43.475,36.007 42.037,36.052 L 42.043,36.045 L 42.036,36.052 C 40.492,36.023 38.937,36.595 37.76,37.775 C 36.583,38.95 36.009,40.506 36.038,42.05 C 35.993,43.49 35.42,44.916 34.322,46.015 C 32.023,48.311 28.298,48.312 26.004,46.015 C 25.999,46.01 25.994,46.003 25.988,45.997 C 25.983,45.991 25.976,45.987 25.971,45.982 C 23.674,43.687 23.675,39.962 25.971,37.664 C 27.07,36.566 28.496,35.993 29.936,35.948 C 31.48,35.977 33.036,35.403 34.211,34.225 C 35.391,33.049 35.962,31.494 35.933,29.95 L 35.94,29.943 L 35.933,29.949 C 35.979,28.51 36.551,27.084 37.65,25.985 C 39.947,23.688 43.672,23.688 45.966,25.983 Z M 22.597,26 C 24.893,28.295 24.893,32.021 22.597,34.316 C 20.302,36.612 16.576,36.612 14.281,34.316 C 11.985,32.021 11.985,28.295 14.281,26 C 16.576,23.704 20.302,23.704 22.597,26 Z M 57.642,37.681 C 59.938,39.976 59.938,43.702 57.642,45.997 C 55.347,48.293 51.621,48.293 49.326,45.997 C 47.03,43.702 47.03,39.976 49.326,37.681 C 51.621,35.385 55.347,35.385 57.642,37.681 Z" fill="#2db695" stroke="none" stroke-linejoin="miter" marker-start="none" marker-end="none"/>
  <g id="Group" fill-rule="nonzero" stroke-linejoin="round" stroke-linecap="round" stroke="none" stroke-width="1.108" fill="#2db695">
   <g id="Group_1">
    <path d="M 89.633,47.962 L 89.633,24.08 L 95.03,24.08 L 95.03,29.394 L 103.711,29.394 C 105.122,29.398 106.425,29.614 107.618,30.042 C 108.812,30.47 109.852,31.085 110.74,31.888 C 111.627,32.691 112.317,33.657 112.809,34.787 C 113.3,35.917 113.55,37.185 113.557,38.592 C 113.55,40 113.3,41.278 112.809,42.424 C 112.317,43.571 111.627,44.557 110.74,45.382 C 109.852,46.208 108.812,46.843 107.618,47.287 C 106.425,47.732 105.122,47.957 103.711,47.962 L 89.633,47.962 Z M 95.03,43.04 L 103.495,43.04 C 104.423,43.036 105.236,42.856 105.933,42.5 C 106.63,42.145 107.174,41.635 107.564,40.973 C 107.955,40.31 108.153,39.516 108.159,38.592 C 108.153,37.669 107.955,36.89 107.564,36.255 C 107.174,35.621 106.63,35.14 105.933,34.812 C 105.236,34.484 104.423,34.319 103.495,34.317 L 95.03,34.317 L 95.03,43.04 Z" marker-start="none" marker-end="none"/>
    <path d="M 117.24,47.962 L 117.24,24.08 L 122.637,24.08 L 122.637,29.394 L 131.534,29.394 L 134.341,24.08 L 140.215,24.08 L 136.544,30.645 C 137.964,31.408 139.086,32.463 139.907,33.809 C 140.728,35.155 141.147,36.749 141.164,38.591 C 141.157,40 140.907,41.278 140.416,42.424 C 139.924,43.571 139.234,44.557 138.347,45.382 C 137.459,46.208 136.419,46.843 135.225,47.287 C 134.032,47.732 132.729,47.957 131.318,47.962 L 117.24,47.962 Z M 122.637,43.04 L 131.102,43.04 C 132.03,43.036 132.843,42.856 133.54,42.5 C 134.237,42.145 134.781,41.635 135.171,40.973 C 135.562,40.31 135.76,39.516 135.766,38.591 C 135.76,37.669 135.562,36.89 135.171,36.255 C 134.781,35.62 134.237,35.138 133.54,34.811 C 132.843,34.483 132.03,34.318 131.102,34.317 L 122.637,34.317 L 122.637,43.04 Z" marker-start="none" marker-end="none"/>
    <path d="M 149.769,36 C 149.784,37.648 150.143,39.061 150.843,40.237 C 151.543,41.415 152.493,42.318 153.693,42.949 C 154.893,43.579 156.249,43.897 157.763,43.904 C 159.276,43.897 160.633,43.579 161.832,42.949 C 163.032,42.318 163.982,41.415 164.683,40.237 C 165.383,39.061 165.741,37.648 165.756,36 C 165.741,34.352 165.383,32.939 164.683,31.762 C 163.982,30.585 163.032,29.681 161.832,29.051 C 160.633,28.421 159.276,28.102 157.763,28.096 C 156.249,28.102 154.893,28.421 153.693,29.051 C 152.493,29.681 151.543,30.585 150.843,31.762 C 150.143,32.939 149.784,34.352 149.769,36 Z M 171.154,36 C 171.141,37.885 170.784,39.594 170.082,41.127 C 169.381,42.66 168.413,43.977 167.18,45.079 C 165.947,46.181 164.527,47.029 162.918,47.621 C 161.309,48.215 159.59,48.515 157.763,48.521 C 155.934,48.515 154.216,48.215 152.608,47.621 C 150.999,47.029 149.578,46.181 148.345,45.079 C 147.111,43.977 146.144,42.66 145.443,41.127 C 144.742,39.594 144.384,37.885 144.372,36 C 144.384,34.114 144.742,32.405 145.443,30.873 C 146.144,29.34 147.111,28.023 148.345,26.921 C 149.578,25.819 150.999,24.971 152.608,24.378 C 154.216,23.785 155.934,23.485 157.763,23.479 C 159.59,23.485 161.309,23.785 162.918,24.378 C 164.527,24.971 165.947,25.819 167.18,26.921 C 168.413,28.023 169.381,29.34 170.082,30.873 C 170.784,32.405 171.141,34.114 171.154,36 Z" marker-start="none" marker-end="none"/>
    <path d="M 198.237,44.978 C 197.001,45.893 195.739,46.608 194.45,47.125 C 193.162,47.642 191.832,48.006 190.463,48.217 C 189.093,48.426 187.668,48.528 186.188,48.52 C 184.655,48.521 183.221,48.374 181.885,48.077 C 180.549,47.78 179.372,47.329 178.355,46.722 C 177.337,46.116 176.541,45.348 175.967,44.42 C 175.391,43.492 175.099,42.397 175.089,41.135 C 175.096,39.66 175.413,38.446 176.042,37.492 C 176.671,36.538 177.571,35.8 178.742,35.278 C 179.914,34.756 181.316,34.405 182.949,34.225 L 190.981,33.319 C 191.982,33.215 192.689,32.99 193.102,32.644 C 193.515,32.297 193.715,31.803 193.701,31.16 C 193.691,30.485 193.405,29.926 192.844,29.485 C 192.283,29.045 191.512,28.717 190.528,28.502 C 189.545,28.287 188.415,28.18 187.138,28.18 C 185.191,28.176 183.375,28.444 181.691,28.984 C 180.008,29.525 178.355,30.366 176.73,31.506 L 174.182,27.318 C 175.441,26.388 176.709,25.64 177.989,25.076 C 179.268,24.512 180.608,24.104 182.007,23.851 C 183.406,23.598 184.915,23.474 186.533,23.479 C 188.334,23.477 189.987,23.631 191.494,23.94 C 193,24.249 194.309,24.72 195.419,25.356 C 196.528,25.99 197.389,26.797 197.999,27.775 C 198.61,28.753 198.919,29.91 198.928,31.246 C 198.921,32.71 198.585,33.937 197.922,34.928 C 197.258,35.918 196.312,36.698 195.082,37.266 C 193.852,37.834 192.384,38.217 190.678,38.414 L 183.51,39.235 C 182.888,39.302 182.344,39.399 181.879,39.527 C 181.415,39.656 181.053,39.85 180.795,40.108 C 180.537,40.366 180.406,40.723 180.402,41.178 C 180.387,41.63 180.541,42.049 180.865,42.434 C 181.189,42.818 181.772,43.127 182.615,43.363 C 183.457,43.598 184.648,43.719 186.188,43.726 C 187.449,43.728 188.621,43.637 189.705,43.452 C 190.788,43.267 191.816,42.975 192.79,42.574 C 193.763,42.173 194.715,41.65 195.645,41.005 L 198.237,44.978 Z" marker-start="none" marker-end="none"/>
    <path d="M 201.467,47.962 L 201.467,43.124 L 211.185,43.124 L 211.185,24.08 L 216.582,24.08 L 216.582,43.124 L 226.3,43.124 L 226.3,47.962 L 201.467,47.962 Z" marker-start="none" marker-end="none"/>
    <path d="M 233.94,36 C 233.955,37.648 234.314,39.061 235.014,40.237 C 235.714,41.415 236.664,42.318 237.864,42.949 C 239.064,43.579 240.42,43.897 241.934,43.904 C 243.447,43.897 244.804,43.579 246.003,42.949 C 247.203,42.318 248.153,41.415 248.854,40.237 C 249.554,39.061 249.912,37.648 249.927,36 C 249.912,34.352 249.554,32.939 248.854,31.762 C 248.153,30.585 247.203,29.681 246.003,29.051 C 244.804,28.421 243.447,28.102 241.934,28.096 C 240.42,28.102 239.064,28.421 237.864,29.051 C 236.664,29.681 235.714,30.585 235.014,31.762 C 234.314,32.939 233.955,34.352 233.94,36 Z M 255.325,36 C 255.312,37.885 254.955,39.594 254.253,41.127 C 253.552,42.66 252.584,43.977 251.351,45.079 C 250.118,46.181 248.698,47.029 247.089,47.621 C 245.48,48.215 243.761,48.515 241.934,48.521 C 240.105,48.515 238.387,48.215 236.779,47.621 C 235.17,47.029 233.749,46.181 232.516,45.079 C 231.282,43.977 230.315,42.66 229.614,41.127 C 228.913,39.594 228.555,37.885 228.543,36 C 228.555,34.114 228.913,32.405 229.614,30.873 C 230.315,29.34 231.282,28.023 232.516,26.921 C 233.749,25.819 235.17,24.971 236.779,24.378 C 238.387,23.785 240.105,23.485 241.934,23.479 C 243.761,23.485 245.48,23.785 247.089,24.378 C 248.698,24.971 250.118,25.819 251.351,26.921 C 252.584,28.023 253.552,29.34 254.253,30.873 C 254.955,32.405 255.312,34.114 255.325,36 Z" marker-start="none" marker-end="none"/>
    <path d="M 259.302,47.962 L 259.302,24.08 L 264.614,24.08 L 264.614,40.189 L 278.909,24.08 L 284.049,24.08 L 284.049,47.962 L 278.693,47.962 L 278.693,31.897 L 264.398,47.962 L 259.302,47.962 Z" marker-start="none" marker-end="none"/>
    <path d="M 293.413,36 C 293.428,37.648 293.787,39.061 294.487,40.237 C 295.187,41.415 296.137,42.318 297.337,42.949 C 298.537,43.579 299.893,43.897 301.407,43.904 C 302.92,43.897 304.277,43.579 305.476,42.949 C 306.676,42.318 307.626,41.415 308.327,40.237 C 309.027,39.061 309.385,37.648 309.4,36 C 309.385,34.352 309.027,32.939 308.327,31.762 C 307.626,30.585 306.676,29.681 305.476,29.051 C 304.277,28.421 302.92,28.102 301.407,28.096 C 299.893,28.102 298.537,28.421 297.337,29.051 C 296.137,29.681 295.187,30.585 294.487,31.762 C 293.787,32.939 293.428,34.352 293.413,36 Z M 314.798,36 C 314.785,37.885 314.428,39.594 313.726,41.127 C 313.025,42.66 312.057,43.977 310.824,45.079 C 309.591,46.181 308.171,47.029 306.562,47.621 C 304.953,48.215 303.234,48.515 301.407,48.521 C 299.578,48.515 297.86,48.215 296.252,47.621 C 294.643,47.029 293.222,46.181 291.989,45.079 C 290.755,43.977 289.788,42.66 289.087,41.127 C 288.386,39.594 288.028,37.885 288.016,36 C 288.028,34.114 288.386,32.405 289.087,30.873 C 289.788,29.34 290.755,28.023 291.989,26.921 C 293.222,25.819 294.643,24.971 296.252,24.378 C 297.86,23.785 299.578,23.485 301.407,23.479 C 303.234,23.485 304.953,23.785 306.562,24.378 C 308.171,24.971 309.591,25.819 310.824,26.921 C 312.057,28.023 313.025,29.34 313.726,30.873 C 314.428,32.405 314.785,34.114 314.798,36 Z" marker-start="none" marker-end="none"/>
    <path d="M 318.775,47.962 L 318.775,24.08 L 331.084,24.08 C 332.74,24.086 334.334,24.373 335.865,24.94 C 337.395,25.509 338.767,26.319 339.981,27.372 C 341.195,28.426 342.157,29.684 342.867,31.149 C 343.576,32.612 343.939,34.243 343.954,36.042 C 343.939,37.84 343.576,39.47 342.867,40.929 C 342.157,42.389 341.195,43.642 339.981,44.69 C 338.767,45.738 337.395,46.544 335.865,47.108 C 334.334,47.671 332.74,47.956 331.084,47.962 L 318.775,47.962 Z M 324.172,43.082 L 331.084,43.082 C 332.535,43.071 333.821,42.767 334.941,42.169 C 336.06,41.57 336.94,40.744 337.579,39.69 C 338.219,38.637 338.544,37.42 338.556,36.042 C 338.544,34.663 338.219,33.447 337.579,32.394 C 336.94,31.34 336.06,30.514 334.941,29.916 C 333.821,29.318 332.535,29.014 331.084,29.003 L 324.172,29.003 L 324.172,43.082 Z" marker-start="none" marker-end="none"/>
    <path d="M 359.452,43.167 L 361.309,43.167 L 365.628,32.409 L 355.003,32.409 L 359.452,43.167 Z M 356.083,47.962 L 345.674,24.08 L 351.461,24.08 L 353.016,27.707 L 367.745,27.707 L 369.3,24.08 L 375.001,24.08 L 364.851,47.962 L 356.083,47.962 Z" marker-start="none" marker-end="none"/>
   </g>
  </g>
 </g>
</svg>
